<?xml version="1.0" encoding="UTF-8"?>
<svg width="1025px" height="815px" viewBox="0 0 1025 815" version="1.1" xmlns="http://www.w3.org/2000/svg" xmlns:xlink="http://www.w3.org/1999/xlink">
    <!-- Generator: Sketch 61.1 (89650) - https://sketch.com -->
    <title>未命名</title>
    <desc>Created with Sketch.</desc>
    <g id="页面-1" stroke="none" stroke-width="1" fill="none" fill-rule="evenodd">
        <g id="编组" transform="translate(0.000000, 0.100000)" fill="#333333" fill-rule="nonzero">
            <path d="M594.2,782.9 L429.8,782.9 C289.1,782.9 174.6,668.4 174.6,527.7 C174.6,387 289.1,272.5 429.8,272.5 L594.1,272.5 C734.8,272.5 849.300065,387 849.300065,527.7 C849.4,668.4 734.9,782.9 594.2,782.9 L594.2,782.9 Z M429.8,331 C321.3,331 233.1,419.3 233.1,527.7 C233.1,636.1 321.4,724.4 429.8,724.4 L594.1,724.4 C702.6,724.4 790.8,636.1 790.8,527.7 C790.8,419.3 702.5,331 594.1,331 L429.8,331 Z" id="形状"></path>
            <path d="M912.6,813.7 C896.5,813.7 883.4,800.6 883.4,784.5 C883.4,732.7 841.2,690.5 789.4,690.5 C773.3,690.5 760.2,677.4 760.2,661.3 C760.2,645.2 773.3,632.1 789.4,632.1 C873.5,632.1 941.9,700.5 941.9,784.6 C941.8,800.7 928.7,813.7 912.6,813.7 L912.6,813.7 Z M994.8,731.6 C978.7,731.6 965.6,718.5 965.6,702.4 C965.6,573.8 861.6,567.3 840.8,567.3 C824.7,567.3 811.6,554.2 811.6,538.1 C811.6,522 824.7,508.9 840.8,508.9 C932,508.9 1024.1,568.8 1024.1,702.5 C1024,718.5 1010.9,731.6 994.8,731.6 L994.8,731.6 Z M111.4,813.7 C95.3,813.7 82.2,800.6 82.2,784.5 C82.2,700.4 150.6,632 234.7,632 C250.8,632 263.9,645.1 263.9,661.2 C263.9,677.3 250.8,690.4 234.7,690.4 C182.9,690.4 140.7,732.6 140.7,784.4 C140.6,800.7 127.6,813.7 111.4,813.7 Z M29.2,731.6 C13.1,731.6 0,718.5 0,702.3 C0,568.6 92.1,508.7 183.3,508.7 C199.4,508.7 212.5,521.8 212.5,537.9 C212.5,554 199.4,567.1 183.3,567.1 C162.5,567.1 58.5,573.6 58.5,702.2 C58.5,718.5 45.4,731.6 29.2,731.6 Z M265.5,372.1 C263.9,372.1 262.3,372 260.6,371.7 C230.8,366.7 174.5,335 174.5,250.4 C174.5,234.3 187.6,221.2 203.7,221.2 C219.8,221.2 232.9,234.3 232.9,250.4 C232.9,303.5 264.3,312.8 270.6,314.1 C286.5,316.8 297,331.8 294.4,347.7 C292.2,362 279.6,372.1 265.5,372.1 L265.5,372.1 Z" id="形状"></path>
            <path d="M198.7,264.5 C125.8,264.5 66.5,205.2 66.5,132.3 C66.5,59.4 125.8,0.1 198.7,0.1 C228.7,0.1 229.8,31.9 231.3,75.9 C231.6,84.8 232,96.7 232.7,105.3 C241.6,104.5 252,100.7 261.5,97.1 C278.6,90.7 298,83.5 314.8,95.2 C325.5,102.6 330.9,115.1 330.9,132.4 C330.9,205.2 271.6,264.5 198.7,264.5 L198.7,264.5 Z M181.4,50.6 C143.6,58.6 115.2,92.2 115.2,132.3 C115.2,178.3 152.7,215.8 198.7,215.8 C241.6,215.8 277.1,183.3 281.7,141.6 C280.6,142 279.6,142.4 278.6,142.8 C259.4,150 233,159.8 206,150.2 C184.9,142.7 184.1,119.6 182.7,77.6 C182.4,69.9 182,59.2 181.4,50.6 L181.4,50.6 Z M758.5,372.1 C744.5,372.1 732.1,362 729.7,347.7 C727.1,331.9 737.6,317 753.3,314.1 C759.8,312.7 791,303.3 791,250.4 C791,234.3 804.1,221.2 820.2,221.2 C836.3,221.2 849.4,234.3 849.4,250.4 C849.4,335 793.1,366.7 763.3,371.7 C761.7,371.9 760.1,372.1 758.5,372.1 L758.5,372.1 Z" id="形状"></path>
            <path d="M825.3,264.5 C752.4,264.5 693.1,205.2 693.1,132.3 C693.1,115 698.5,102.5 709.2,95.1 C726,83.4 745.4,90.7 762.5,97 C772,100.5 782.4,104.4 791.3,105.2 C792,96.6 792.4,84.7 792.7,75.8 C794.2,31.8 795.3,0 825.3,0 C898.2,0 957.5,59.3 957.5,132.2 C957.5,205.2 898.2,264.5 825.3,264.5 L825.3,264.5 Z M742.3,141.5 C746.9,183.2 782.4,215.7 825.3,215.7 C871.3,215.7 908.8,178.2 908.8,132.2 C908.8,92.1 880.4,58.5 842.6,50.5 C842,59.1 841.6,69.8 841.4,77.4 C840,119.4 839.2,142.5 818.1,150 C791.1,159.6 764.8,149.7 745.5,142.6 C744.4,142.3 743.4,141.9 742.3,141.5 L742.3,141.5 Z" id="形状"></path>
            <path d="M388.7,250.4 C388.7,278.787436 411.712564,301.8 440.1,301.8 C468.487436,301.8 491.5,278.787436 491.5,250.4 C491.5,222.012564 468.487436,199 440.1,199 C411.712564,199 388.7,222.012564 388.7,250.4 Z" id="路径"></path>
            <path d="M542.8,250.4 C542.8,268.763452 552.596784,285.731981 568.499999,294.913708 C584.403215,304.095434 603.996785,304.095434 619.900001,294.913708 C635.803216,285.731981 645.6,268.763452 645.6,250.4 C645.6,232.036548 635.803216,215.068019 619.900001,205.886292 C603.996785,196.704566 584.403215,196.704566 568.499999,205.886292 C552.596784,215.068019 542.8,232.036548 542.8,250.4 Z" id="路径"></path>
            <path d="M506.9,634.8 C449.7,634.8 405,601.3 405,558.6 C405,550.5 411.5,544 419.6,544 C427.7,544 434.2,550.5 434.2,558.6 C434.2,584.1 467.5,605.6 506.9,605.6 C546.3,605.6 579.6,584.1 579.6,558.6 C579.6,550.5 586.1,544 594.2,544 C602.3,544 608.8,550.5 608.8,558.6 C608.8,601.3 564,634.8 506.9,634.8 L506.9,634.8 Z" id="路径"></path>
        </g>
    </g>
</svg>